<svg version="1.1" xmlns="http://www.w3.org/2000/svg" xmlns:xlink="http://www.w3.org/1999/xlink" width="128.000000pt" height="128.000000pt" viewBox="0,0,256,256"><g fill="#ffffff" fill-rule="nonzero" stroke="none" stroke-width="1" stroke-linecap="butt" stroke-linejoin="miter" stroke-miterlimit="10" stroke-dasharray="" stroke-dashoffset="0" font-family="none" font-weight="none" font-size="none" text-anchor="none" style="mix-blend-mode: normal"><g transform="translate(-0.06063,0) scale(2,2)"><g transform="translate(0,128) scale(0.1,-0.1)"><path d="M403,1241c-22,-11 -51,-33 -64,-50c-18,-25 -30,-31 -59,-31c-50,0 -101,-36 -125,-87c-11,-24 -26,-43 -34,-43c-8,0 -31,-18 -52,-40c-63,-66 -65,-152 -3,-219l34,-38v-237c0,-280 -1,-276 100,-276c47,0 64,-4 80,-20c25,-25 55,-25 80,0c25,25 25,55 0,80c-26,26 -55,25 -80,0c-17,-17 -31,-20 -78,-18l-57,3l-3,228c-2,222 -2,227 18,227c19,0 20,-6 20,-150c0,-137 2,-152 20,-170c13,-13 33,-20 60,-20c27,0 47,-7 60,-20c11,-11 29,-20 40,-20c26,0 60,34 60,60c0,26 -34,60 -60,60c-11,0 -29,-9 -41,-21c-14,-14 -30,-19 -57,-17l-37,3l-3,148c-2,142 -2,147 18,147c18,0 20,-6 20,-70c0,-76 19,-110 60,-110c11,0 29,-9 40,-20c11,-11 29,-20 40,-20c26,0 60,34 60,60c0,26 -34,60 -60,60c-11,0 -29,-9 -41,-21c-37,-37 -54,-22 -57,54l-3,67h181h180v-25c0,-13 -11,-36 -25,-50c-22,-21 -35,-25 -80,-25h-55v-60v-60h60c53,0 60,-2 60,-20c0,-18 -7,-20 -60,-20h-60v-60v-60h60c53,0 60,-2 60,-20c0,-18 -7,-20 -60,-20h-60v-60v-60h55c45,0 58,-4 80,-25c21,-22 25,-35 25,-80v-55h60h60v60c0,53 2,60 20,60c18,0 20,-7 20,-60v-60h60h60v60c0,53 2,60 20,60c18,0 20,-7 20,-60v-60h60h60v55c0,45 4,58 25,80c22,21 35,25 80,25h55v60v60h-60c-53,0 -60,2 -60,20c0,18 7,20 60,20h60v60v60h-60c-53,0 -60,2 -60,20c0,18 7,20 60,20h60v60v60h-55c-45,0 -58,4 -80,25c-21,22 -25,35 -25,80v55h-60h-60v-60c0,-53 -2,-60 -20,-60c-18,0 -20,7 -20,60v60h-35c-19,0 -35,2 -35,3c0,2 7,19 16,36c21,42 14,109 -16,151l-22,31l84,-3c82,-3 83,-3 86,-30c2,-17 -4,-34 -17,-47c-26,-26 -27,-55 -1,-81c25,-25 55,-25 80,0c25,25 25,55 0,80c-11,11 -20,33 -20,50c0,17 -9,39 -20,50c-18,18 -33,20 -138,20c-107,0 -118,2 -130,20c-12,20 -11,20 195,18l208,-3l3,-27c2,-17 -4,-34 -17,-47c-12,-12 -21,-30 -21,-41c0,-26 34,-60 60,-60c26,0 60,34 60,60c0,11 -9,29 -20,40c-11,11 -20,33 -20,50c0,17 -9,39 -20,50c-19,19 -33,20 -284,20h-264l-6,23c-15,61 -95,117 -166,117c-19,0 -54,-9 -77,-19zM548,1200c35,-21 72,-74 72,-102c0,-13 8,-18 30,-18c44,0 78,-19 100,-57c10,-18 25,-33 33,-33c7,0 26,-14 43,-31c24,-25 29,-39 29,-79c0,-43 -5,-54 -33,-82l-32,-33h-330h-330l-32,33c-28,28 -33,39 -33,82c0,40 5,54 29,79c16,16 42,33 57,36c20,5 29,13 29,26c0,60 61,107 124,95c31,-6 36,-3 54,29c42,70 125,95 190,55zM1216,969c10,-17 -13,-36 -27,-22c-12,12 -4,33 11,33c5,0 12,-5 16,-11zM1056,889c10,-17 -13,-36 -27,-22c-12,12 -4,33 11,33c5,0 12,-5 16,-11zM820,700c0,-33 -3,-40 -20,-40c-16,0 -20,7 -20,34c0,24 5,36 18,39c9,3 18,5 20,6c1,0 2,-17 2,-39zM900,700c0,-33 -3,-40 -20,-40c-17,0 -20,7 -20,40c0,33 3,40 20,40c17,0 20,-7 20,-40zM1060,700c0,-33 -3,-40 -20,-40c-17,0 -20,7 -20,40c0,33 3,40 20,40c17,0 20,-7 20,-40zM740,690c0,-23 -4,-30 -20,-30c-16,0 -20,7 -20,30c0,23 4,30 20,30c16,0 20,-7 20,-30zM1100,400v-220h-220h-220v220v220h220h220zM416,569c10,-17 -13,-36 -27,-22c-12,12 -4,33 11,33c5,0 12,-5 16,-11zM620,560c0,-17 -7,-20 -40,-20c-33,0 -40,3 -40,20c0,17 7,20 40,20c33,0 40,-3 40,-20zM1220,560c0,-17 -7,-20 -40,-20c-33,0 -40,3 -40,20c0,17 7,20 40,20c33,0 40,-3 40,-20zM376,409c10,-17 -13,-36 -27,-22c-12,12 -4,33 11,33c5,0 12,-5 16,-11zM620,400c0,-17 -7,-20 -40,-20c-33,0 -40,3 -40,20c0,17 7,20 40,20c33,0 40,-3 40,-20zM1220,400c0,-17 -7,-20 -40,-20c-33,0 -40,3 -40,20c0,17 7,20 40,20c33,0 40,-3 40,-20zM336,249c10,-17 -13,-36 -27,-22c-12,12 -4,33 11,33c5,0 12,-5 16,-11zM620,240c0,-17 -7,-20 -40,-20c-33,0 -40,3 -40,20c0,17 7,20 40,20c33,0 40,-3 40,-20zM1220,240c0,-17 -7,-20 -40,-20c-33,0 -40,3 -40,20c0,17 7,20 40,20c33,0 40,-3 40,-20zM740,100c0,-33 -3,-40 -20,-40c-17,0 -20,7 -20,40c0,33 3,40 20,40c17,0 20,-7 20,-40zM900,100c0,-33 -3,-40 -20,-40c-17,0 -20,7 -20,40c0,33 3,40 20,40c17,0 20,-7 20,-40zM1060,100c0,-33 -3,-40 -20,-40c-17,0 -20,7 -20,40c0,33 3,40 20,40c17,0 20,-7 20,-40z"></path><path d="M296,943c-16,-65 -31,-124 -34,-130c-2,-8 4,-13 17,-13c15,0 23,10 31,40c10,38 13,40 50,40c37,0 40,-2 50,-40c8,-30 16,-40 31,-40c13,0 19,5 17,13c-3,6 -18,65 -34,130l-28,117h-36h-36zM374,984c4,-19 10,-42 13,-50c4,-10 -3,-14 -27,-14c-24,0 -31,4 -27,14c3,8 9,31 13,50c3,20 10,36 14,36c4,0 11,-16 14,-36z"></path><path d="M500,1040c0,-13 7,-20 20,-20c19,0 20,-7 20,-90c0,-83 -1,-90 -20,-90c-13,0 -20,-7 -20,-20c0,-18 7,-20 60,-20c53,0 60,2 60,20c0,13 -7,20 -20,20c-19,0 -20,7 -20,90c0,83 1,90 20,90c13,0 20,7 20,20c0,18 -7,20 -60,20c-53,0 -60,-2 -60,-20z"></path><path d="M700,400v-180h180h180v180v180h-180h-180zM1020,400v-140h-140h-140v140v140h140h140z"></path></g></g></g></svg>