<svg width="155" height="42" viewBox="0 0 155 42" fill="none" xmlns="http://www.w3.org/2000/svg">
<path d="M13.4 2.91504L3.72266 19.6783L13.4 36.4415H32.7579L42.4352 19.6783L32.7579 2.91504H13.4Z" fill="url(#paint0_linear_1105_12069)"/>
<path d="M32.9602 4.53474C33.9889 4.53474 34.8228 3.70083 34.8228 2.67215C34.8228 1.64348 33.9889 0.80957 32.9602 0.80957C31.9316 0.80957 31.0977 1.64348 31.0977 2.67215C31.0977 3.70083 31.9316 4.53474 32.9602 4.53474Z" fill="url(#paint1_linear_1105_12069)"/>
<path d="M32.9595 5.3448C32.431 5.3448 31.9143 5.18807 31.4748 4.89442C31.0353 4.60077 30.6928 4.1834 30.4905 3.69509C30.2883 3.20677 30.2353 2.66944 30.3385 2.15104C30.4416 1.63265 30.6961 1.15647 31.0698 0.782729C31.4436 0.408987 31.9198 0.154466 32.4382 0.0513506C32.9565 -0.0517645 33.4939 0.00115791 33.9822 0.203426C34.4705 0.405693 34.8879 0.748222 35.1815 1.1877C35.4752 1.62717 35.6319 2.14385 35.6319 2.6724C35.6311 3.3809 35.3492 4.06014 34.8482 4.56113C34.3473 5.06211 33.668 5.34395 32.9595 5.3448ZM32.9595 1.61964C32.7513 1.61964 32.5478 1.68138 32.3746 1.79706C32.2015 1.91274 32.0666 2.07716 31.9869 2.26953C31.9072 2.46189 31.8864 2.67357 31.927 2.87779C31.9676 3.082 32.0679 3.26959 32.2151 3.41682C32.3623 3.56405 32.5499 3.66432 32.7541 3.70494C32.9583 3.74556 33.17 3.72471 33.3624 3.64503C33.5548 3.56535 33.7192 3.43041 33.8349 3.25729C33.9505 3.08416 34.0123 2.88062 34.0123 2.6724C34.0118 2.39332 33.9008 2.1258 33.7035 1.92846C33.5061 1.73112 33.2386 1.62007 32.9595 1.61964Z" fill="white"/>
<path d="M11.8234 7.77474C13.523 7.77474 14.9007 6.39698 14.9007 4.69743C14.9007 2.99788 13.523 1.62012 11.8234 1.62012C10.1239 1.62012 8.74609 2.99788 8.74609 4.69743C8.74609 6.39698 10.1239 7.77474 11.8234 7.77474Z" fill="url(#paint2_linear_1105_12069)"/>
<path d="M11.8227 8.58383C11.0539 8.58383 10.3023 8.35585 9.6631 7.92873C9.02387 7.50161 8.52565 6.89452 8.23144 6.18424C7.93723 5.47396 7.86025 4.69239 8.01024 3.93836C8.16022 3.18433 8.53044 2.49171 9.07406 1.94809C9.61769 1.40446 10.3103 1.03425 11.0643 0.884262C11.8184 0.734276 12.5999 0.811255 13.3102 1.10546C14.0205 1.39967 14.6276 1.89789 15.0547 2.53713C15.4818 3.17636 15.7098 3.9279 15.7098 4.6967C15.7098 5.72763 15.3003 6.71634 14.5713 7.44531C13.8423 8.17429 12.8536 8.58383 11.8227 8.58383ZM11.8227 2.42921C11.3742 2.42921 10.9358 2.56219 10.5629 2.81135C10.19 3.0605 9.89941 3.41464 9.72779 3.82897C9.55617 4.2433 9.51126 4.69922 9.59875 5.13907C9.68625 5.57892 9.9022 5.98294 10.2193 6.30006C10.5364 6.61717 10.9405 6.83313 11.3803 6.92062C11.8202 7.00811 12.2761 6.96321 12.6904 6.79159C13.1047 6.61997 13.4589 6.32934 13.708 5.95645C13.9572 5.58356 14.0902 5.14517 14.0902 4.6967C14.0902 4.09532 13.8513 3.51858 13.426 3.09334C13.0008 2.6681 12.4241 2.42921 11.8227 2.42921Z" fill="white"/>
<path d="M32.5539 40.4906C34.2534 40.4906 35.6312 39.1128 35.6312 37.4132C35.6312 35.7137 34.2534 34.3359 32.5539 34.3359C30.8543 34.3359 29.4766 35.7137 29.4766 37.4132C29.4766 39.1128 30.8543 40.4906 32.5539 40.4906Z" fill="url(#paint3_linear_1105_12069)"/>
<path d="M32.5551 41.3006C31.7863 41.3006 31.0348 41.0726 30.3955 40.6455C29.7563 40.2184 29.2581 39.6113 28.9639 38.901C28.6697 38.1908 28.5927 37.4092 28.7427 36.6552C28.8926 35.9011 29.2629 35.2085 29.8065 34.6649C30.3501 34.1213 31.0427 33.751 31.7968 33.6011C32.5508 33.4511 33.3324 33.5281 34.0426 33.8223C34.7529 34.1165 35.36 34.6147 35.7871 35.2539C36.2143 35.8932 36.4422 36.6447 36.4422 37.4135C36.4422 38.4444 36.0327 39.4331 35.3037 40.1621C34.5747 40.8911 33.586 41.3006 32.5551 41.3006ZM32.5551 35.146C32.1066 35.146 31.6682 35.279 31.2953 35.5281C30.9225 35.7773 30.6318 36.1314 30.4602 36.5458C30.2886 36.9601 30.2437 37.416 30.3312 37.8559C30.4187 38.2957 30.6346 38.6997 30.9517 39.0169C31.2689 39.334 31.6729 39.5499 32.1127 39.6374C32.5526 39.7249 33.0085 39.68 33.4228 39.5084C33.8372 39.3368 34.1913 39.0461 34.4404 38.6732C34.6896 38.3004 34.8226 37.862 34.8226 37.4135C34.8226 36.8121 34.5837 36.2354 34.1585 35.8101C33.7332 35.3849 33.1565 35.146 32.5551 35.146Z" fill="white"/>
<path d="M2.67313 21.5416C3.70181 21.5416 4.53571 20.7077 4.53571 19.679C4.53571 18.6503 3.70181 17.8164 2.67313 17.8164C1.64445 17.8164 0.810547 18.6503 0.810547 19.679C0.810547 20.7077 1.64445 21.5416 2.67313 21.5416Z" fill="url(#paint4_linear_1105_12069)"/>
<path d="M2.6724 22.3507C2.14385 22.3507 1.62717 22.1939 1.1877 21.9003C0.748222 21.6066 0.405693 21.1893 0.203426 20.7009C0.00115791 20.2126 -0.0517645 19.6753 0.0513506 19.1569C0.154466 18.6385 0.408987 18.1623 0.782729 17.7886C1.15647 17.4148 1.63265 17.1603 2.15104 17.0572C2.66944 16.9541 3.20677 17.007 3.69509 17.2093C4.1834 17.4116 4.60077 17.7541 4.89442 18.1936C5.18807 18.633 5.3448 19.1497 5.3448 19.6783C5.34395 20.3868 5.06211 21.066 4.56113 21.567C4.06014 22.068 3.3809 22.3498 2.6724 22.3507ZM2.6724 18.6255C2.46418 18.6255 2.26064 18.6872 2.08752 18.8029C1.91439 18.9186 1.77946 19.083 1.69978 19.2754C1.62009 19.4678 1.59925 19.6794 1.63987 19.8836C1.68049 20.0879 1.78075 20.2754 1.92799 20.4227C2.07522 20.5699 2.2628 20.6702 2.46702 20.7108C2.67123 20.7514 2.88291 20.7306 3.07528 20.6509C3.26764 20.5712 3.43206 20.4363 3.54774 20.2631C3.66342 20.09 3.72517 19.8865 3.72517 19.6783C3.72474 19.3992 3.61368 19.1317 3.41635 18.9343C3.21901 18.737 2.95148 18.6259 2.6724 18.6255Z" fill="white"/>
<path d="M12.8763 39.1949C13.9049 39.1949 14.7388 38.361 14.7388 37.3323C14.7388 36.3036 13.9049 35.4697 12.8763 35.4697C11.8476 35.4697 11.0137 36.3036 11.0137 37.3323C11.0137 38.361 11.8476 39.1949 12.8763 39.1949Z" fill="url(#paint5_linear_1105_12069)"/>
<path d="M12.8755 40.005C12.347 40.005 11.8303 39.8482 11.3908 39.5546C10.9513 39.2609 10.6088 38.8436 10.4066 38.3552C10.2043 37.8669 10.1514 37.3296 10.2545 36.8112C10.3576 36.2928 10.6121 35.8166 10.9859 35.4429C11.3596 35.0691 11.8358 34.8146 12.3542 34.7115C12.8726 34.6084 13.4099 34.6613 13.8982 34.8636C14.3865 35.0658 14.8039 35.4084 15.0975 35.8479C15.3912 36.2873 15.5479 36.804 15.5479 37.3326C15.5471 38.0411 15.2652 38.7203 14.7643 39.2213C14.2633 39.7223 13.584 40.0041 12.8755 40.005ZM12.8755 36.2798C12.6673 36.2798 12.4638 36.3415 12.2906 36.4572C12.1175 36.5729 11.9826 36.7373 11.9029 36.9297C11.8232 37.1221 11.8024 37.3337 11.843 37.5379C11.8836 37.7422 11.9839 37.9297 12.1311 38.077C12.2783 38.2242 12.4659 38.3245 12.6701 38.3651C12.8744 38.4057 13.086 38.3849 13.2784 38.3052C13.4708 38.2255 13.6352 38.0906 13.7509 37.9174C13.8665 37.7443 13.9283 37.5408 13.9283 37.3326C13.9279 37.0535 13.8168 36.786 13.6195 36.5886C13.4221 36.3913 13.1546 36.2802 12.8755 36.2798Z" fill="white"/>
<path d="M43.8098 21.5416C44.8385 21.5416 45.6724 20.7077 45.6724 19.679C45.6724 18.6503 44.8385 17.8164 43.8098 17.8164C42.7812 17.8164 41.9473 18.6503 41.9473 19.679C41.9473 20.7077 42.7812 21.5416 43.8098 21.5416Z" fill="url(#paint6_linear_1105_12069)"/>
<path d="M43.8111 22.3507C43.2825 22.3507 42.7658 22.1939 42.3264 21.9003C41.8869 21.6066 41.5444 21.1893 41.3421 20.7009C41.1398 20.2126 41.0869 19.6753 41.19 19.1569C41.2931 18.6385 41.5477 18.1623 41.9214 17.7886C42.2951 17.4148 42.7713 17.1603 43.2897 17.0572C43.8081 16.9541 44.3454 17.007 44.8338 17.2093C45.3221 17.4116 45.7394 17.7541 46.0331 18.1936C46.3267 18.633 46.4835 19.1497 46.4835 19.6783C46.4826 20.3868 46.2008 21.066 45.6998 21.567C45.1988 22.068 44.5196 22.3498 43.8111 22.3507ZM43.8111 18.6255C43.6029 18.6255 43.3993 18.6872 43.2262 18.8029C43.0531 18.9186 42.9181 19.083 42.8384 19.2754C42.7588 19.4678 42.7379 19.6794 42.7785 19.8836C42.8192 20.0879 42.9194 20.2754 43.0667 20.4227C43.2139 20.5699 43.4015 20.6702 43.6057 20.7108C43.8099 20.7514 44.0216 20.7306 44.214 20.6509C44.4063 20.5712 44.5707 20.4363 44.6864 20.2631C44.8021 20.09 44.8638 19.8865 44.8638 19.6783C44.8634 19.3992 44.7524 19.1317 44.555 18.9343C44.3577 18.737 44.0902 18.6259 43.8111 18.6255Z" fill="white"/>
<path d="M31.0972 15.9536C31.0859 18.383 27.3834 18.383 27.372 15.9536C27.3607 13.5241 31.0859 13.5177 31.0972 15.9536ZM16.6015 21.5413C14.172 21.5527 14.172 25.2552 16.6015 25.2665C19.0309 25.2778 19.0374 21.5527 16.6015 21.5413ZM32.2309 4.53516L29.3156 16.0346L32.2309 4.53516ZM27.534 15.0628L14.9008 4.69712L27.534 15.0628ZM11.8235 7.77443L16.3585 22.3512L11.8235 7.77443ZM16.5205 25.2665L13.4432 35.4702L16.5205 25.2665ZM27.8579 17.3303L18.3021 22.6751L27.8579 17.3303ZM16.5205 23.3229L30.1254 35.4702L16.5205 23.3229ZM16.5205 23.3229L4.53516 19.5978L16.5205 23.3229ZM41.9488 19.5978L28.8297 16.6824L41.9488 19.5978ZM32.069 34.3365L29.1536 17.8162L32.069 34.3365Z" fill="white"/>
<path d="M29.8008 35.8329L18.0098 25.3053C17.682 25.5498 17.293 25.6989 16.8858 25.7361L13.9073 35.6159L12.9776 35.3341L15.893 25.66C14.8353 25.3523 14.2863 24.374 14.2863 23.4087C14.2863 23.3213 14.2863 23.2338 14.2992 23.1463L4.38867 20.069L4.67697 19.1426L14.5827 22.2199C14.7926 21.8248 15.1203 21.505 15.5204 21.3048L11.3596 7.9185L12.286 7.63021L16.4647 21.0554H16.5991C16.9692 21.0436 17.3363 21.125 17.6669 21.2919C17.9974 21.4589 18.2807 21.7061 18.4909 22.011L27.1867 17.1521C26.9821 16.7868 26.8781 16.3737 26.8854 15.9551C26.8848 15.7135 26.9186 15.473 26.9858 15.2409L14.5924 5.0728L15.2078 4.32129L27.4685 14.3809C27.6967 14.1435 27.971 13.9554 28.2746 13.8281C28.5782 13.7008 28.9047 13.637 29.2339 13.6407C29.2954 13.6407 29.357 13.6407 29.4185 13.6407L31.7589 4.40875L32.7015 4.64846L30.3563 13.9014C30.736 14.0894 31.0535 14.3827 31.2709 14.7463C31.4884 15.1099 31.5965 15.5285 31.5824 15.9519C31.5829 16.2272 31.5386 16.5007 31.4512 16.7617L42.0533 19.1183L41.8428 20.0674L30.8876 17.6379C30.56 17.9375 30.1548 18.139 29.7182 18.2194L32.5461 34.2538L31.5905 34.4158L28.7302 18.2162C28.428 18.157 28.1399 18.0404 27.8815 17.8728L18.8666 22.9163C18.8975 23.0765 18.9132 23.2392 18.9136 23.4022C18.9143 23.8044 18.8187 24.2009 18.635 24.5587L30.4486 35.1073L29.8008 35.8329ZM15.2597 23.4395C15.2743 24.11 15.6921 24.7773 16.6024 24.7805C16.8269 24.7828 17.0488 24.7323 17.2502 24.6332L16.2687 23.7553L15.2597 23.4395ZM16.8437 22.9536L17.8705 23.8719C17.9185 23.7183 17.9425 23.5583 17.9418 23.3974C17.9418 22.7576 17.5774 22.1114 16.7692 22.0288L16.821 22.2005L15.8946 22.4888L15.8184 22.2442C15.7139 22.318 15.6224 22.4089 15.548 22.5131L16.6688 22.8613L16.5198 23.3229L16.8437 22.9536ZM29.174 14.6076C28.5051 14.6368 27.8572 15.0627 27.8572 15.9551C27.8572 16.9269 28.6184 17.3335 29.3311 17.2913L28.7237 17.1569L28.9343 16.2078L30.4891 16.5528C30.5712 16.3638 30.6126 16.1596 30.6106 15.9535C30.6197 15.7478 30.5788 15.5429 30.4914 15.3564C30.4039 15.1699 30.2726 15.0075 30.1085 14.8829L29.7846 16.1544L28.8419 15.9147L29.174 14.6076Z" fill="white"/>
<path d="M66.1996 11.767V15.8514H61.5615V29.1504H57.2311V15.8514H52.5684V11.767H66.1996ZM79.0187 22.8023C79.0187 23.278 78.9859 23.6635 78.9203 23.9588H69.755C69.9682 24.5821 70.3291 25.0701 70.8376 25.4227C71.3543 25.7754 71.9653 25.9518 72.6707 25.9518C73.2694 25.9518 73.8271 25.8287 74.3438 25.5827C74.8687 25.3366 75.287 25.0414 75.5986 24.6969L78.2929 27.0344C77.5957 27.7971 76.751 28.3917 75.7586 28.8182C74.7662 29.2447 73.6959 29.458 72.5476 29.458C70.4972 29.458 68.7872 28.81 67.4175 27.5142C66.0478 26.2101 65.363 24.5903 65.363 22.6547C65.363 21.4162 65.6583 20.2885 66.2488 19.2715C66.8475 18.2545 67.6718 17.4549 68.7216 16.8725C69.7714 16.2902 70.936 15.9991 72.2155 15.9991C73.1751 15.9991 74.0731 16.1713 74.9097 16.5158C75.7545 16.8602 76.4762 17.3318 77.0749 17.9306C77.6737 18.5211 78.1453 19.2387 78.4897 20.0835C78.8424 20.9283 79.0187 21.8345 79.0187 22.8023ZM72.1909 19.4807C71.6168 19.4807 71.1082 19.657 70.6654 20.0097C70.2307 20.3541 69.919 20.8298 69.7304 21.4368H74.6637C74.4832 20.838 74.1716 20.3623 73.7287 20.0097C73.2858 19.657 72.7732 19.4807 72.1909 19.4807ZM87.1753 29.458C85.863 29.458 84.6738 29.1668 83.6075 28.5845C82.5495 27.994 81.7212 27.1861 81.1224 26.1609C80.5237 25.1357 80.2244 23.9916 80.2244 22.7285C80.2244 21.4655 80.5237 20.3213 81.1224 19.2961C81.7212 18.2709 82.5495 17.4672 83.6075 16.8848C84.6738 16.2943 85.863 15.9991 87.1753 15.9991C88.4465 15.9991 89.607 16.282 90.6568 16.8479C91.7067 17.4138 92.5309 18.1889 93.1296 19.1731L89.5742 21.3383C89.3446 20.9118 89.0165 20.5756 88.59 20.3295C88.1636 20.0753 87.692 19.9482 87.1753 19.9482C86.3797 19.9482 85.7195 20.2147 85.1946 20.7478C84.6697 21.2727 84.4072 21.933 84.4072 22.7285C84.4072 23.5241 84.6697 24.1843 85.1946 24.7092C85.7195 25.2341 86.3797 25.4966 87.1753 25.4966C87.692 25.4966 88.1636 25.3735 88.59 25.1275C89.0165 24.8732 89.3446 24.5329 89.5742 24.1064L93.1296 26.2839C92.5309 27.2681 91.7067 28.0432 90.6568 28.6091C89.607 29.175 88.4465 29.458 87.1753 29.458ZM105.346 29.1504L100.536 23.2821L99.244 24.7707V29.1504H94.9135V11.767H99.244V18.8163L105.088 11.767H110.587L103.304 20.1081L110.968 29.1504H105.346ZM121.167 27.9694C120.043 28.9618 118.555 29.458 116.701 29.458C114.848 29.458 113.359 28.9618 112.235 27.9694C111.112 26.9688 110.55 25.6483 110.55 24.008V16.3066H114.634V23.4297C114.634 24.0531 114.823 24.5534 115.2 24.9306C115.586 25.3079 116.086 25.4966 116.701 25.4966C117.316 25.4966 117.812 25.3079 118.19 24.9306C118.575 24.5534 118.768 24.0531 118.768 23.4297V16.3066H122.852V24.008C122.852 25.6483 122.291 26.9688 121.167 27.9694ZM132.977 15.9991C134.126 15.9991 135.171 16.2943 136.114 16.8848C137.058 17.4672 137.796 18.275 138.329 19.3084C138.862 20.3336 139.129 21.4737 139.129 22.7285C139.129 23.9834 138.862 25.1275 138.329 26.1609C137.796 27.1861 137.058 27.994 136.114 28.5845C135.171 29.1668 134.126 29.458 132.977 29.458C131.583 29.458 130.39 29.0028 129.397 28.0924V29.1504H125.325V11.0043H129.397V17.3646C130.39 16.4543 131.583 15.9991 132.977 15.9991ZM130.185 24.7092C130.718 25.2341 131.382 25.4966 132.178 25.4966C132.973 25.4966 133.629 25.2341 134.146 24.7092C134.663 24.1843 134.921 23.5241 134.921 22.7285C134.921 21.933 134.659 21.2727 134.134 20.7478C133.617 20.2147 132.965 19.9482 132.178 19.9482C131.382 19.9482 130.718 20.2147 130.185 20.7478C129.66 21.2727 129.397 21.933 129.397 22.7285C129.397 23.5241 129.66 24.1843 130.185 24.7092ZM154.088 22.8023C154.088 23.278 154.055 23.6635 153.99 23.9588H144.825C145.038 24.5821 145.399 25.0701 145.907 25.4227C146.424 25.7754 147.035 25.9518 147.74 25.9518C148.339 25.9518 148.897 25.8287 149.413 25.5827C149.938 25.3366 150.357 25.0414 150.668 24.6969L153.362 27.0344C152.665 27.7971 151.821 28.3917 150.828 28.8182C149.836 29.2447 148.765 29.458 147.617 29.458C145.567 29.458 143.857 28.81 142.487 27.5142C141.117 26.2101 140.433 24.5903 140.433 22.6547C140.433 21.4162 140.728 20.2885 141.318 19.2715C141.917 18.2545 142.741 17.4549 143.791 16.8725C144.841 16.2902 146.006 15.9991 147.285 15.9991C148.245 15.9991 149.143 16.1713 149.979 16.5158C150.824 16.8602 151.546 17.3318 152.145 17.9306C152.743 18.5211 153.215 19.2387 153.559 20.0835C153.912 20.9283 154.088 21.8345 154.088 22.8023ZM147.26 19.4807C146.686 19.4807 146.178 19.657 145.735 20.0097C145.3 20.3541 144.989 20.8298 144.8 21.4368H149.733C149.553 20.838 149.241 20.3623 148.798 20.0097C148.355 19.657 147.843 19.4807 147.26 19.4807Z" fill="#001EEE"/>
<defs>
<linearGradient id="paint0_linear_1105_12069" x1="3.72266" y1="19.6783" x2="42.4352" y2="19.6783" gradientUnits="userSpaceOnUse">
<stop stop-color="#08E6FD"/>
<stop offset="0.5" stop-color="#00A5FD"/>
<stop offset="1" stop-color="#001EEE"/>
</linearGradient>
<linearGradient id="paint1_linear_1105_12069" x1="31.0977" y1="2.67215" x2="34.8228" y2="2.67215" gradientUnits="userSpaceOnUse">
<stop stop-color="#08E6FD"/>
<stop offset="0.5" stop-color="#00A5FD"/>
<stop offset="1" stop-color="#001EEE"/>
</linearGradient>
<linearGradient id="paint2_linear_1105_12069" x1="8.74609" y1="4.69743" x2="14.9007" y2="4.69743" gradientUnits="userSpaceOnUse">
<stop stop-color="#08E6FD"/>
<stop offset="0.5" stop-color="#00A5FD"/>
<stop offset="1" stop-color="#001EEE"/>
</linearGradient>
<linearGradient id="paint3_linear_1105_12069" x1="29.4766" y1="37.4132" x2="35.6312" y2="37.4132" gradientUnits="userSpaceOnUse">
<stop stop-color="#08E6FD"/>
<stop offset="0.5" stop-color="#00A5FD"/>
<stop offset="1" stop-color="#001EEE"/>
</linearGradient>
<linearGradient id="paint4_linear_1105_12069" x1="0.810547" y1="19.679" x2="4.53571" y2="19.679" gradientUnits="userSpaceOnUse">
<stop stop-color="#08E6FD"/>
<stop offset="0.5" stop-color="#00A5FD"/>
<stop offset="1" stop-color="#001EEE"/>
</linearGradient>
<linearGradient id="paint5_linear_1105_12069" x1="11.0137" y1="37.3323" x2="14.7388" y2="37.3323" gradientUnits="userSpaceOnUse">
<stop stop-color="#08E6FD"/>
<stop offset="0.5" stop-color="#00A5FD"/>
<stop offset="1" stop-color="#001EEE"/>
</linearGradient>
<linearGradient id="paint6_linear_1105_12069" x1="41.9473" y1="19.679" x2="45.6724" y2="19.679" gradientUnits="userSpaceOnUse">
<stop stop-color="#08E6FD"/>
<stop offset="0.5" stop-color="#00A5FD"/>
<stop offset="1" stop-color="#001EEE"/>
</linearGradient>
</defs>
</svg>
